# xmcd CD database file
#
# Track frame offsets:
#	183
#	18483
#	34268
#	49783
#	59110
#	80148
#	98523
#	109620
#	127953
#	140708
#	156603
#	169750
#	185820
#	202485
#	217908
#	231928
#	247668
#	260945
#
# Disc length: 3683 seconds
#
# Revision: 2
# Processed by: cddbd v1.5.1PL0 Copyright (c) Steve Scherf et al.
# Submitted via: CDex 1.51
#
DISCID=150e6112
DTITLE=Various Artist - Gefühle - Vol.6 - Die schönsten romantischen Schlager
DYEAR=1900
DGENRE=Oldies
TTITLE0=Michael Holm - Tränen lügen nicht
TTITLE1=Wencke Myhre - Die Einsamkeit sagt heut goodbye
TTITLE2=Udo Jürgens - Es wär so schön, die ganze Nacht bei dir zu bleiben
TTITLE3=Erika Pluhar - Einfach ein Liebeslied
TTITLE4=Reinhard Mey - Wie vor Jahr und Tag
TTITLE5=Waterloo and Robinson - Das war Hollywood von gestern
TTITLE6=Christian Anders - In den Augen der andern
TTITLE7=Howard Carpendale - Und ich warte auf ein Zeichen
TTITLE8=Freddy Breck - Rote Rosen
TTITLE9=Vicky Leandros - Dann kamst du
TTITLE10=Rick John - Du bist das Größte
TTITLE11=Gigliola Cinquetti - Ja
TTITLE12=Bitter Sweet and Company - Charly
TTITLE13=Demis Roussos - Schönes Mädchen aus Arcadia
TTITLE14=Gitte - Ich hab' die Liebe verspielt in Monte Carlo
TTITLE15=Jürgen Drews - Addio goodbye
TTITLE16=Dalida - Er war gerade 18 Jahr
TTITLE17=Costa Cordalis - Shangri La
EXTD=
EXTT0=
EXTT1=
EXTT2=
EXTT3=
EXTT4=
EXTT5=
EXTT6=
EXTT7=
EXTT8=
EXTT9=
EXTT10=
EXTT11=
EXTT12=
EXTT13=
EXTT14=
EXTT15=
EXTT16=
EXTT17=
PLAYORDER=
